<?xml version="1.0" encoding="utf-8"?>
<!-- Generator: Adobe Illustrator 17.1.0, SVG Export Plug-In . SVG Version: 6.00 Build 0)  -->
<!DOCTYPE svg PUBLIC "-//W3C//DTD SVG 1.1//EN" "http://www.w3.org/Graphics/SVG/1.1/DTD/svg11.dtd">
<svg version="1.1" id="Layer_1" xmlns="http://www.w3.org/2000/svg" xmlns:xlink="http://www.w3.org/1999/xlink" x="0px" y="0px"
	 viewBox="0 0 611.3 70.3" enable-background="new 0 0 611.3 70.3" xml:space="preserve">
<g>
	<polygon fill="#FFFFFF" points="42.6,6.6 37.8,6.6 11.1,32.9 11.1,6.6 7.5,6.6 7.5,63 11.1,63 11.1,37.6 12.5,36.1 39.6,63 
		44.3,63 15,33.7 	"/>
	<path fill="#FFFFFF" d="M59.3,63h3.7l7.6-18.5h24.7l7.6,18.5h3.7L82.9,4.7L59.3,63z M71.8,41.1l11.1-27.2l11,27.2H71.8z"/>
	<polygon fill="#FFFFFF" points="131.4,6.6 127.8,6.6 127.8,63 145.8,63 145.8,59.6 131.4,59.6 	"/>
	<polygon fill="#FFFFFF" points="167.2,63 194.1,63 194.1,59.6 170.8,59.6 170.8,33.8 193.5,33.8 193.5,30.5 170.8,30.5 170.8,10 
		194.1,10 194.1,6.6 167.2,6.6 	"/>
	<rect x="220.1" y="6.6" fill="#FFFFFF" width="3.6" height="56.4"/>
	<path fill="#FFFFFF" d="M281.8,13.7c-1.5-1.4-3.1-2.6-4.7-3.6c-1.6-0.9-3.3-1.6-5-2.2c-1.7-0.5-3.5-0.9-5.4-1.1
		c-1.9-0.2-3.8-0.3-5.9-0.3h-10.2V63h10.2c4.2,0,8-0.5,11.4-1.5c3.4-1,6.7-3,9.8-6c2.8-2.7,5-5.9,6.5-9.5c1.5-3.6,2.2-7.3,2.2-11.2
		c0-4-0.7-7.9-2.2-11.5C287.1,19.7,284.8,16.5,281.8,13.7z M285.3,44.6c-1.3,3.1-3.1,5.8-5.5,8.2c-2.7,2.6-5.6,4.4-8.7,5.4
		c-3.1,0.9-6.5,1.4-10.2,1.4h-6.5V10h6.5c3.5,0,6.8,0.4,9.8,1.2c3,0.8,5.8,2.5,8.5,4.9c2.7,2.4,4.7,5.3,6.1,8.5
		c1.4,3.2,2.1,6.7,2.1,10.2C287.2,38.3,286.6,41.5,285.3,44.6z"/>
	<path fill="#FFFFFF" d="M360.8,14.4c-2.6-2.6-5.7-4.7-9.3-6.2c-3.6-1.5-7.3-2.3-11.3-2.3c-4,0-7.8,0.8-11.3,2.3
		c-3.5,1.5-6.6,3.6-9.3,6.2c-2.7,2.6-4.8,5.7-6.3,9.2c-1.5,3.5-2.3,7.2-2.3,11.2c0,4,0.8,7.7,2.4,11.2c1.6,3.5,3.7,6.6,6.3,9.2
		c2.6,2.6,5.7,4.7,9.3,6.2c3.5,1.5,7.3,2.3,11.3,2.3c3.9,0,7.7-0.8,11.3-2.3c3.6-1.5,6.7-3.6,9.3-6.2c2.6-2.6,4.7-5.7,6.3-9.2
		c1.6-3.5,2.4-7.2,2.4-11.2c0-3.9-0.8-7.7-2.4-11.2C365.6,20.1,363.5,17,360.8,14.4z M363.9,44.6c-1.4,3.1-3.2,5.8-5.5,8.1
		c-2.3,2.3-5,4.2-8.1,5.5c-3.1,1.4-6.4,2.1-9.9,2.1c-3.5,0-6.9-0.7-9.9-2.1c-3.1-1.4-5.8-3.2-8.1-5.5c-2.3-2.3-4.2-5-5.5-8.1
		c-1.3-3.1-2-6.4-2-9.9s0.7-6.8,2-9.9c1.3-3.1,3.2-5.8,5.5-8.1c2.3-2.3,5.1-4.2,8.1-5.5c3.1-1.4,6.4-2.1,9.9-2.1
		c3.5,0,6.8,0.7,9.9,2.1c3.1,1.4,5.8,3.2,8.1,5.5c2.3,2.3,4.2,5,5.5,8.1c1.4,3.1,2.1,6.4,2.1,9.9C365.9,38.2,365.2,41.5,363.9,44.6z
		"/>
	<polygon fill="#FFFFFF" points="475.4,6.6 470.7,6.6 443.9,32.9 443.9,6.6 440.3,6.6 440.3,63 443.9,63 443.9,37.6 445.4,36.1 
		472.5,63 477.2,63 447.9,33.7 	"/>
	<path fill="#FFFFFF" d="M544.2,14.4c-2.6-2.6-5.7-4.7-9.3-6.2c-3.6-1.5-7.3-2.3-11.3-2.3c-4,0-7.8,0.8-11.3,2.3s-6.6,3.6-9.3,6.2
		c-2.7,2.6-4.8,5.7-6.3,9.2c-1.5,3.5-2.3,7.2-2.3,11.2c0,4,0.8,7.7,2.4,11.2c1.6,3.5,3.7,6.6,6.3,9.2c2.6,2.6,5.7,4.7,9.3,6.2
		c3.5,1.5,7.3,2.3,11.3,2.3c3.9,0,7.7-0.8,11.3-2.3c3.6-1.5,6.7-3.6,9.3-6.2c2.6-2.6,4.7-5.7,6.3-9.2c1.6-3.5,2.4-7.2,2.4-11.2
		c0-3.9-0.8-7.7-2.4-11.2C549,20.1,546.9,17,544.2,14.4z M547.3,44.6c-1.4,3.1-3.2,5.8-5.5,8.1c-2.3,2.3-5,4.2-8.1,5.5
		c-3.1,1.4-6.4,2.1-9.9,2.1c-3.5,0-6.9-0.7-9.9-2.1c-3.1-1.4-5.8-3.2-8.1-5.5c-2.3-2.3-4.2-5-5.5-8.1c-1.3-3.1-2-6.4-2-9.9
		s0.7-6.8,2-9.9s3.2-5.8,5.5-8.1c2.3-2.3,5.1-4.2,8.1-5.5c3.1-1.4,6.4-2.1,9.9-2.1c3.5,0,6.8,0.7,9.9,2.1c3.1,1.4,5.8,3.2,8.1,5.5
		c2.3,2.3,4.2,5,5.5,8.1c1.4,3.1,2.1,6.4,2.1,9.9C549.3,38.2,548.6,41.5,547.3,44.6z"/>
	<path fill="#FFFFFF" d="M602.6,15.1c-0.8-2-2.1-3.8-3.9-5.2c-1.7-1.5-3.6-2.4-5.7-2.8c-2.1-0.3-4.2-0.5-6.5-0.5h-9.9V63h3.6V36.2
		h6.4c2.2,0,4.5-0.2,6.7-0.7c2.2-0.4,4.2-1.4,5.9-2.9c1.6-1.3,2.8-3,3.5-5c0.8-2,1.2-4.1,1.2-6.1C603.8,19.2,603.4,17.1,602.6,15.1z
		 M596.6,29.8c-1.4,1.3-3,2.1-4.6,2.5c-1.6,0.4-3.4,0.6-5.2,0.6h-6.5V10h5.9c1.7,0,3.5,0.1,5.2,0.3c1.7,0.2,3.3,0.8,4.7,1.9
		c1.4,1,2.5,2.4,3.2,4s1,3.3,1,5.1C600.2,24.7,599,27.5,596.6,29.8z"/>
	<path fill="#FFFFFF" d="M409.5,9.9l-1.7-3.5c-1.1,0.8-2.3,1.6-3.4,2.5c-1.4,1.1-2.7,2.4-3.9,3.7c-1.1,1.3-2,2.7-2.7,4.3
		c-0.7,1.5-1,3.1-1,4.9c0,1.9,0.4,3.9,1.3,5.9c0.9,2.1,1.9,4.2,3,6.3c1.1,2.2,2.1,4.4,3,6.5c1,2.3,1.5,4.6,1.5,6.8
		c0,2.9-1,5.4-2.8,7.4c-1.5,1.6-3.4,3.2-5.4,4.6l1.6,3.3l2.8-2.3c1.3-1.1,2.6-2.3,3.7-3.6c1.1-1.3,2.1-2.8,2.8-4.3
		c0.7-1.5,1-3.2,1-5.1c0-2-0.4-4.1-1.2-6.3c-0.8-2.3-1.8-4.6-2.8-6.8c-1.1-2.3-2.1-4.5-3.1-6.6c-1.1-2.2-1.6-4.2-1.6-5.9
		c0-2.9,1-5.4,3.1-7.4C405.3,12.7,407.2,11.2,409.5,9.9z"/>
</g>
</svg>
