<?xml version="1.0" encoding="utf-8"?>
<!-- Generator: Adobe Illustrator 15.0.2, SVG Export Plug-In  -->
<!DOCTYPE svg PUBLIC "-//W3C//DTD SVG 1.1//EN" "http://www.w3.org/Graphics/SVG/1.1/DTD/svg11.dtd" [
	<!ENTITY ns_flows "http://ns.adobe.com/Flows/1.0/">
]>
<svg version="1.1"
	 xmlns="http://www.w3.org/2000/svg" xmlns:xlink="http://www.w3.org/1999/xlink" xmlns:a="http://ns.adobe.com/AdobeSVGViewerExtensions/3.0/"
	 x="0px" y="0px" width="500px" height="500px" viewBox="-6.583 -38.25 500 500"
	 overflow="visible" enable-background="new -6.583 -38.25 500 500" xml:space="preserve">
<defs>
</defs>
<path fill="#FFFFFF" d="M486.794,210.151L366.059,1.035C365.689,0.394,365.006,0,364.267,0H122.803
	c-0.739,0-1.423,0.394-1.792,1.035L0.277,210.151c-0.37,0.64-0.37,1.429,0,2.069l120.733,209.116
	c0.37,0.641,1.053,1.035,1.792,1.035h241.464c0.739,0,1.422-0.395,1.792-1.035L486.794,212.22
	C487.165,211.58,487.165,210.791,486.794,210.151z M330.357,366.397l-84.407,48.732v-97.469h56.271L330.357,366.397z
	 M414.769,317.661l-80.229,46.321l-26.743-46.321H414.769z M332.772,370.578l27.113,46.963H251.428L332.772,370.578z
	 M72.305,312.833l171.231-98.862l171.233,98.861L72.305,312.833z M241.122,317.661v97.469l-84.408-48.733l28.136-48.733
	L241.122,317.661z M235.643,417.541H127.185l27.114-46.964L235.643,417.541z M72.305,317.663h106.969l-26.742,46.318L72.305,317.663
	z M65.709,208.771v-97.466l84.408,48.732l-28.136,48.733H65.709z M241.122,12.07v197.722l-171.231,98.86L241.122,12.07z
	 M68.123,107.123l84.408-48.734l28.136,48.733l-28.136,48.733L68.123,107.123z M190.083,90.814l-6.628,11.48l-26.742-46.319
	L236.94,9.655L190.083,90.814z M154.299,51.792L127.185,4.829h108.458L154.299,51.792z M119.193,213.6l-53.484,92.637V213.6H119.193
	z M68.772,101.172l54.23-93.929l27.114,46.964L68.772,101.172z M150.117,368.164l-27.114,46.964l-54.23-93.93L150.117,368.164z
	 M418.297,321.199l-54.229,93.929l-27.115-46.964L418.297,321.199z M421.365,213.6v92.636L367.881,213.6H421.365z M334.542,155.855
	l-28.139-48.735l28.136-48.733l84.411,48.734L334.542,155.855z M330.359,55.973l-26.742,46.319L250.132,9.655L330.359,55.973z
	 M332.772,51.791L251.43,4.829h108.455L332.772,51.791z M417.184,308.651L245.95,209.792V12.07L417.184,308.651z M336.956,160.037
	l84.409-48.734v97.468h-56.272L336.956,160.037z M364.068,7.243l54.229,93.925l-81.343-46.963L364.068,7.243z M60.88,213.6v93.928
	L6.649,213.6H60.88z M60.88,114.842v93.929H6.649L60.88,114.842z M426.195,208.771v-93.924l54.228,93.924H426.195z M426.195,307.523
	V213.6h54.228L426.195,307.523z"/>
</svg>
